<?xml version="1.0" encoding="UTF-8"?>
<svg id="Layer_2" data-name="Layer 2" xmlns="http://www.w3.org/2000/svg" viewBox="0 0 148.89 148.89">
  <defs>
    <style>
      .cls-1 {
        fill: #fff;
      }

      .cls-2 {
        fill: #302e2f;
      }

      .cls-3 {
        fill: #39b54a;
      }
    </style>
  </defs>
  <g id="Layer_1-2" data-name="Layer 1">
    <circle class="cls-2" cx="74.44" cy="74.44" r="74.44"/>
    <path class="cls-1" d="M8.3,71.34c21.77-8.95,44.79-17.74,66.82-25.96,15.41,6.04,32.35,12.91,47.72,19.29,5.22,2.22,10.47,4.39,15.68,6.67-5.36-1.87-10.68-3.85-16.03-5.78-15.52-5.73-32.44-12.18-47.74-18.19,0,0,.71,0,.71,0-21.91,8.15-44.97,16.52-67.16,23.96h0Z"/>
    <polygon class="cls-3" points="14.22 72.53 25.63 76.23 46.96 68.82 36.15 64.97 14.22 72.53"/>
    <polygon class="cls-3" points="29.48 78.16 40.89 81.86 80.76 68.18 69.94 64.33 29.48 78.16"/>
    <polygon class="cls-3" points="45.4 83.22 56.81 86.93 109.12 69.39 98.3 65.54 45.4 83.22"/>
    <polygon class="cls-3" points="72.36 92.55 131.82 72.53 121.01 68.68 60.96 88.85 72.36 92.55"/>
    <path class="cls-1" d="M114.96,83.49c.18,3.56.27,7.11.4,10.67v.24s-.23.12-.23.12c-18.73,9.9-41.1,12.2-61.63,7.25-6.93-1.66-13.71-3.97-20.01-7.36.14-3.84.24-7.67.43-11.51.19,3.75.29,7.51.42,11.26,0,0-.22-.37-.22-.37,3.13,1.44,6.4,2.64,9.71,3.67,23.12,7.38,48.77,6.39,70.95-3.66,0,0-.23.36-.23.36.13-3.56.22-7.11.4-10.67h0Z"/>
  </g>
</svg>